{
  "title": "The Transporter Refueled {2015} CAM XVID AC3-MRG",
  "uid": 12383783,
  "size": 1656202006,
  "categoryP": "video",
  "categoryS": "movies",
  "magnet": "?xt=urn:btih:27a73b50b6b531c31a74c67f4a4ef59a6cb75bac&amp;dn=The+Transporter+Refueled+%7B2015%7D+CAM+XVID+AC3-MRG&amp;tr=udp%3A%2F%2Ftracker.openbittorrent.com%3A80&amp;tr=udp%3A%2F%2Fopen.demonii.com%3A1337&amp;tr=udp%3A%2F%2Ftracker.coppersurfer.tk%3A6969&amp;tr=udp%3A%2F%2Fexodus.desync.com%3A6969",
  "seeders": 928,
  "leechers": 146,
  "uploader": "SaM",
  "files": 9,
  "time": 1441798371,
  "description": " &lt;a href=&quot; http://www.imdb.com/title/tt2938956/&quot; rel=&quot;nofollow&quot; target=&quot;_NEW&quot;&gt; http://www.imdb.com/title/tt2938956/&lt;/a&gt;\nThe Transporter Refueled {2015} CAM XVID AC3-MRG\n\nSource : UnKnOwN..TY:) GOOD TOO SEE YA BACK:)\nFormat : AVI\nFormat/Info : Audio Video Interleave\nFile size : 1.54 GiB\nDuration : 1h 29mn\nOverall bit rate : 2 453 Kbps\nWriting library : VirtualDub build 35491/release\n\nVideo\nID : 0\nFormat : MPEG-4 Visual\nFormat profile : Advanced Simple@L5\nFormat settings, BVOP : 2\nFormat settings, QPel : No\nFormat settings, GMC : No warppoints\nFormat settings, Matrix : Default (H.263)\nMuxing mode : Packed bitstream\nCodec ID : XVID\nCodec ID/Hint : XviD\nDuration : 1h 29mn\nBit rate : 2 251 Kbps\nWidth : 720 pixels\nHeight : 312 pixels\nDisplay aspect ratio : 2.35:1\nFrame rate : 25.000 fps\nColor space : YUV\nChroma subsampling : 4:2:0\nBit depth : 8 bits\nScan type : Progressive\nCompression mode : Lossy\nBits/(Pixel*Frame) : 0.401\nStream size : 1.41 GiB (92%)\nWriting library : XviD 73\n\nAudio\nID : 1\nFormat : AC-3\nFormat/Info : Audio Coding 3\nMode extension : CM (complete main)\nFormat settings, Endianness : Big\nCodec ID : 2000\nDuration : 1h 29mn\nBit rate mode : Constant\nBit rate : 192 Kbps\nChannel(s) : 2 channels\nChannel positions : Front: L R\nSampling rate : 48.0 KHz\nCompression mode : Lossy\nStream size : 124 MiB (8%)\nAlignment : Split accross interleaves\nInterleave, duration : 40 ms (1.00 video frame)\nInterleave, preload duratio : 500 ms\n &lt;a href=&quot;\nhttp://extraimago.com/image/mbP&quot; rel=&quot;nofollow&quot; target=&quot;_NEW&quot;&gt;\nhttp://extraimago.com/image/mbP&lt;/a&gt; &lt;a href=&quot;\nhttp://extraimago.com/image/mbG&quot; rel=&quot;nofollow&quot; target=&quot;_NEW&quot;&gt;\nhttp://extraimago.com/image/mbG&lt;/a&gt; &lt;a href=&quot;\nhttp://extraimago.com/image/mbr&quot; rel=&quot;nofollow&quot; target=&quot;_NEW&quot;&gt;\nhttp://extraimago.com/image/mbr&lt;/a&gt; &lt;a href=&quot;\nhttp://extraimago.com/image/mbp&quot; rel=&quot;nofollow&quot; target=&quot;_NEW&quot;&gt;\nhttp://extraimago.com/image/mbp&lt;/a&gt; &lt;a href=&quot;\nhttp://extraimago.com/image/mbY&quot; rel=&quot;nofollow&quot; target=&quot;_NEW&quot;&gt;\nhttp://extraimago.com/image/mbY&lt;/a&gt;",
  "parsed": {
    "xt": "urn:btih:27a73b50b6b531c31a74c67f4a4ef59a6cb75bac",
    "dn": "The Transporter Refueled {2015} CAM XVID AC3-MRG",
    "tr": [
      "udp://exodus.desync.com:6969",
      "udp://open.demonii.com:1337",
      "udp://tracker.coppersurfer.tk:6969",
      "udp://tracker.openbittorrent.com:80"
    ],
    "infoHash": "27a73b50b6b531c31a74c67f4a4ef59a6cb75bac",
    "infoHashBuffer": {
      "type": "Buffer",
      "data": [
        39,
        167,
        59,
        80,
        182,
        181,
        49,
        195,
        26,
        116,
        198,
        127,
        74,
        78,
        245,
        154,
        108,
        183,
        91,
        172
      ]
    },
    "name": "The Transporter Refueled {2015} CAM XVID AC3-MRG",
    "announce": [
      "udp://exodus.desync.com:6969",
      "udp://open.demonii.com:1337",
      "udp://tracker.coppersurfer.tk:6969",
      "udp://tracker.openbittorrent.com:80"
    ],
    "urlList": []
  },
  "previous": 1074,
  "peers": 167,
  "last_updated": "2016-12-24T20:19:07.547Z"
}